<?xml version="1.0" encoding="UTF-8"?>
<svg id="Layer_1" data-name="Layer 1" xmlns="http://www.w3.org/2000/svg" viewBox="0 0 1500 1500">
  <defs>
    <style>
      .cls-1 {
        fill: #343a2e;
        stroke-width: 0px;
      }
    </style>
  </defs>
  <path class="cls-1" d="M1013.24,563.43l110.7-.31.57,203.99.47,167.66.31,110.7c.17,61.14-49.25,110.83-110.39,111h0s-278.39.78-278.39.78h0l-249.15.7-110.7.31-.31-110.7,110.7-.31,248.5-.7h1.26l245.63-.69c17.76-.05,32.11-14.48,32.06-32.24l-.22-78.54-.47-167.66-.57-203.99"/>
  <path class="cls-1" d="M486.32,787.15l-.05-18.26h0c4.27-39.45,32.49-71.81,69.55-82.68,8.69-2.55,17.88-3.91,27.39-3.91,24.97,0,47.89,9.41,65.25,24.87,7.96,7.09,14.76,15.44,20.05,24.75,8,14.07,11.89,30.1,11.93,46.28l.44,157,.41.82,10.45,20.81,44.44,88.46,55.04-109.57.36-.69-.47-166.97c-2.74-50.38-23.73-96-56.06-130.55-15.83-16.91-34.45-31.19-55.13-42.07-28.89-15.22-61.8-23.82-96.71-23.82-27.39,0-53.53,5.3-77.47,14.93-6.84,2.74-13.5,5.85-19.96,9.28l-.13-49.27h0l-.17-60.18c-.05-17.76,14.31-32.19,32.06-32.24l161.98-.45,55.01-.15,55.69-.15,222.71-.62,110.7-.31-.31-110.68-110.7.31-222.71.61-55.69.17-55.01.15-194.14.54h-.01c-61.01.17-110.37,49.68-110.37,110.66v.33l.31,110.71.56,203.99h.03c-.01.1-.01.22-.03.33l.06,21.09.41,146.23,71.12-.2,39.58-.1-.42-149.41"/>
</svg>